<svg viewBox="0 0 1105 1105" fill="none" xmlns="http://www.w3.org/2000/svg">
<rect width="1105" height="1105" fill="white"/>
<g filter="url(#filter0_i_101_2)">
<path d="M513.575 107.496C504.659 105.432 498 97.2631 498 87.5C498 76.1782 506.954 67 518 67C529.046 67 538 76.1782 538 87.5C538 95.1735 533.887 101.862 527.797 105.376L552.5 155.095L577.203 105.376C571.113 101.862 567 95.1735 567 87.5C567 76.1782 575.954 67 587 67C598.046 67 607 76.1782 607 87.5C607 97.2631 600.341 105.432 591.425 107.496L606.633 168.714L636.631 147.152C634.341 143.843 633 139.828 633 135.5C633 124.178 642.178 115 653.5 115C664.822 115 674 124.178 674 135.5C674 146.822 664.822 156 653.5 156C652.145 156 650.82 155.869 649.539 155.618L633.7 230H471.3L455.461 155.618C454.18 155.869 452.855 156 451.5 156C440.178 156 431 146.822 431 135.5C431 124.178 440.178 115 451.5 115C462.822 115 472 124.178 472 135.5C472 139.828 470.659 143.843 468.369 147.152L498.367 168.714L513.575 107.496Z" fill="url(#paint0_linear_101_2)"/>
<path d="M470.65 239.125C467.378 239.125 464.7 241.811 464.7 245.094V253.972H444.068V308.241C459.572 312.5 459.572 313 459.572 323.747L281.267 517.566V401.274H227V711.385H281.267V610.599C347.689 610.599 384.576 707.208 423.235 808.456C465.793 919.917 510.498 1037 599.116 1037C716.5 1037 754.164 959.473 754.164 959.473C754.164 959.473 890.607 925.361 878.203 757.901H723.154V804.417H808.431C808.431 914.521 599.116 936.214 560.354 781.159C529.344 587.34 738.659 571.835 808.431 649.362L847.193 610.599C803.263 545.992 599.116 455.544 490.582 664.868C476.726 664.868 464.851 646.045 450.708 623.628C425.287 583.333 392.537 531.422 327.781 556.329C387.217 473.633 498.334 347.005 653.383 308.241V253.972H631.3V245.094C631.3 241.811 628.622 239.125 625.35 239.125H470.65Z" fill="url(#paint1_linear_101_2)"/>
</g>
<defs>
<filter id="filter0_i_101_2" x="227" y="67" width="652" height="974" filterUnits="userSpaceOnUse" color-interpolation-filters="sRGB">
<feFlood flood-opacity="0" result="BackgroundImageFix"/>
<feBlend mode="normal" in="SourceGraphic" in2="BackgroundImageFix" result="shape"/>
<feColorMatrix in="SourceAlpha" type="matrix" values="0 0 0 0 0 0 0 0 0 0 0 0 0 0 0 0 0 0 127 0" result="hardAlpha"/>
<feOffset dy="4"/>
<feGaussianBlur stdDeviation="2"/>
<feComposite in2="hardAlpha" operator="arithmetic" k2="-1" k3="1"/>
<feColorMatrix type="matrix" values="0 0 0 0 0 0 0 0 0 0 0 0 0 0 0 0 0 0 0.25 0"/>
<feBlend mode="normal" in2="shape" result="effect1_innerShadow_101_2"/>
</filter>
<linearGradient id="paint0_linear_101_2" x1="553" y1="67" x2="553" y2="1037" gradientUnits="userSpaceOnUse">
<stop stop-color="#9D9D9D"/>
<stop offset="1" stop-color="#2C2C2C"/>
</linearGradient>
<linearGradient id="paint1_linear_101_2" x1="553" y1="67" x2="553" y2="1037" gradientUnits="userSpaceOnUse">
<stop stop-color="#9D9D9D"/>
<stop offset="1" stop-color="#2C2C2C"/>
</linearGradient>
</defs>
</svg>
